# xmcd
#
# Track frame offsets:
#	150
#	20080
#	35650
#	50422
#	66190
#	79122
#	96410
#	111962
#	126435
#	139547
#
# Disc length: 2127 seconds
#
# Revision: 1
# Processed by: cddbd v1.5.1PL0 Copyright (c) Steve Scherf et al.
# Submitted via: EasyCDDAExtractor 6.2.0.3
#
DISCID=8f084d0a
DTITLE=Casey Berry And The Live Texas Mosquitoes - Gleam Of Hope
DYEAR=2002
DGENRE=Texas Country
TTITLE0=Gleam Of Hope
TTITLE1=Turning Loose
TTITLE2=Hollis Oklahoma
TTITLE3=Lonely Bed
TTITLE4=Whiskey Town
TTITLE5=I Used To Be You
TTITLE6=Hit The Ground
TTITLE7=Midnight Train
TTITLE8=Hurt Like This
TTITLE9=Wrong All Along
EXTD=
EXTT0=
EXTT1=
EXTT2=
EXTT3=
EXTT4=
EXTT5=
EXTT6=
EXTT7=
EXTT8=
EXTT9=
PLAYORDER=
